HIERARCHY
ROOT simHips
{
  OFFSET 6.13146 95.3961 -0.669452
  CHANNELS 6 Xposition Yposition Zposition Zrotation Xrotation Yrotation
  JOINT simSpine
  {
    OFFSET -0.000360269 21.3001 -0.0169217
    CHANNELS 3 Zrotation Xrotation Yrotation
    JOINT simLeftArm
    {
      OFFSET 13.5181 21.3012 -2.3511e-005
      CHANNELS 3 Zrotation Xrotation Yrotation
      JOINT simLeftForeArm
      {
        OFFSET 24.5783 0 -6.3921e-005
        CHANNELS 3 Zrotation Xrotation Yrotation
        JOINT simLeftHand
        {
          OFFSET 24.5783 0 0
          CHANNELS 3 Zrotation Xrotation Yrotation
          End Site
          {
            OFFSET 7.32568 1.52588e-005 0.0169305
          }
        }
      }
    }
    JOINT simHead
    {
      OFFSET 0 27.4458 -0.00488811
      CHANNELS 3 Zrotation Xrotation Yrotation
      End Site
      {
        OFFSET 0 0 0
      }
    }
    JOINT simRightArm
    {
      OFFSET -13.5174 21.3012 -1.52733e-005
      CHANNELS 3 Zrotation Xrotation Yrotation
      JOINT simRightForeArm
      {
        OFFSET -24.5783 -0.000552281 0.000112897
        CHANNELS 3 Zrotation Xrotation Yrotation
        JOINT simRightHand
        {
          OFFSET -24.5783 0 1.19926e-005
          CHANNELS 3 Zrotation Xrotation Yrotation
          End Site
          {
            OFFSET -7.32568 1.52588e-005 0.0169305
          }
        }
      }
    }
  }
  JOINT simRightUpLeg
  {
    OFFSET -8.44614 -9.41038 0.835682
    CHANNELS 3 Zrotation Xrotation Yrotation
    JOINT simRightLeg
    {
      OFFSET -3.23466e-005 -40.9639 0
      CHANNELS 3 Zrotation Xrotation Yrotation
      JOINT simRightFoot
      {
        OFFSET 0 -40.9639 0
        CHANNELS 3 Zrotation Xrotation Yrotation
        End Site
        {
          OFFSET 0.50614 -9.67405 14.6709
        }
      }
    }
  }
  JOINT simLeftUpLeg
  {
    OFFSET 8.44614 -9.41038 0.835681
    CHANNELS 3 Zrotation Xrotation Yrotation
    JOINT simLeftLeg
    {
      OFFSET -0.00018133 -40.964 6.2497e-005
      CHANNELS 3 Zrotation Xrotation Yrotation
      JOINT simLeftFoot
      {
        OFFSET 0 -40.9639 0
        CHANNELS 3 Zrotation Xrotation Yrotation
        End Site
        {
          OFFSET -0.50614 -9.67405 14.6709
        }
      }
    }
  }
}
MOTION
Frames:	27
Frame Time:	0.0333333
5.61448 96.7266 29.1645 7.85721 15.0469 -44.9783 -0.825777 15.0832 8.81693 -63.9245 -4.61214 8.92145 1.70256e-005 3.5765e-008 -70.4182 -33.5447 -38.9256 -53.7732 0.422603 -18.4348 13.4536 67.8947 -9.8073 30.7077 -0.000228882 2.81412e-015 94.9733 172.187 -14.5013 -152.315 -22.7652 -13.3124 -37.0714 -0.00614974 27.262 0.0419091 25.8597 -11.5959 3.82413 38.1321 -45.7146 27.8147 -0.00872748 42.8604 -0.0681141 -19.1591 -5.20712 -9.67551 
5.47885 96.6405 29.3445 7.57243 14.9222 -44.3802 -0.995909 15.3082 9.1305 -63.7749 -4.59188 8.4629 1.70254e-005 3.62383e-008 -70.1483 -33.3838 -39.2261 -53.0373 0.317602 -18.5106 12.6787 67.5495 -9.32158 31.1452 -0.000228882 3.28143e-015 93.2486 172.122 -14.3938 -152.287 -22.8083 -12.7363 -37.3329 -0.00634821 27.5026 0.0420004 25.9644 -11.801 3.82697 37.8967 -45.8518 27.4183 -0.00800187 43.3045 -0.0686097 -19.1555 -5.38686 -10.0153 
5.33494 96.5556 29.508 7.29935 14.8714 -43.7968 -0.989136 15.3428 9.48958 -63.6447 -4.40261 8.01602 1.70252e-005 3.68037e-008 -69.8252 -33.2435 -39.645 -52.4144 0.297136 -18.4599 12.0174 67.2296 -8.99517 31.578 -0.000228882 2.15327e-016 91.7586 172.057 -14.2202 -152.404 -22.7943 -12.2415 -37.5915 -0.00656636 27.766 0.0421016 26.0485 -12.021 3.81832 37.7648 -46.0167 27.0986 -0.00585324 43.7153 -0.0712026 -19.1625 -5.53614 -10.3562 
5.13585 96.4977 29.6535 6.9959 14.7296 -43.2592 -0.898961 15.2545 9.82939 -63.5465 -4.30514 7.75358 1.70251e-005 3.71762e-008 -69.612 -32.5773 -39.7302 -51.984 0.149855 -18.2767 11.4001 66.8813 -8.5409 31.9911 -0.000228882 3.21465e-017 90.2625 171.777 -13.6626 -152.537 -22.7215 -11.6286 -37.7629 -0.00667907 27.9015 0.0421542 26.1179 -12.2141 3.79402 37.5556 -46.0023 26.7039 -0.00330379 44.0107 -0.0744911 -19.2089 -5.65559 -10.6696 
4.87679 96.482 29.7917 6.75642 14.4787 -42.8176 -0.796353 14.8019 10.174 -63.4883 -4.45595 7.84541 1.7025e-005 3.73067e-008 -69.5372 -32.5197 -39.7507 -52.0564 0.139169 -17.9261 10.8521 66.5042 -7.98368 32.3319 -0.000228882 -6.36111e-015 89.0524 171.845 -13.5722 -152.172 -22.6835 -10.948 -37.8781 -0.00668015 27.9028 0.0421547 26.1672 -12.3543 3.77961 37.1746 -45.7966 26.2199 -0.000829997 44.1219 -0.0778952 -19.2886 -5.74751 -10.9028 
4.57745 96.5029 29.9245 6.59669 14.0973 -42.4504 -0.701987 14.1323 10.5342 -63.3867 -4.52985 8.16894 1.7025e-005 3.72474e-008 -69.5712 -32.5059 -39.8175 -52.0506 0.223306 -17.7122 10.3845 66.2276 -7.56568 32.6022 -0.000228882 -6.36111e-015 88.4059 172.302 -13.6785 -151.621 -22.7214 -10.1791 -37.9823 -0.00656056 27.759 0.0420989 26.2151 -12.428 3.79999 36.5582 -45.4361 25.5899 1.37219e-005 44.0617 -0.0813774 -19.3955 -5.81448 -11.0333 
4.21559 96.5616 30.0433 6.43201 13.5724 -42.2089 -0.642825 13.3715 10.9499 -63.2901 -4.66551 8.56025 1.70251e-005 3.71237e-008 -69.6421 -32.1998 -39.9274 -51.0968 0.199072 -17.5688 9.94887 65.9676 -7.06685 32.6814 -0.000228882 0 87.9236 172.332 -13.5541 -151.518 -22.7504 -9.29162 -37.9744 -0.0063226 27.4716 0.0419886 26.2496 -12.4538 3.84642 35.8183 -44.796 24.8804 -4.73702e-005 43.8282 -0.0848831 -19.5462 -5.86101 -11.0895 
3.81337 96.6524 30.1576 6.26579 12.9694 -42.0168 -0.481307 12.406 11.3619 -63.2344 -4.69309 9.13243 1.70251e-005 3.70228e-008 -69.6998 -32.5668 -40.1885 -51.0784 0.308093 -17.1966 9.46088 65.6397 -6.5156 32.5729 -0.000228882 -6.36111e-015 87.7205 171.389 -12.954 -151.857 -22.7594 -8.29408 -37.9329 -0.00596765 27.0402 0.0418261 26.2758 -12.4283 3.90528 34.9796 -43.9821 24.0729 -0.000328634 43.4534 -0.0888525 -19.7203 -5.89657 -11.077 
3.36826 96.7793 30.2787 6.09193 12.274 -41.8631 -0.282168 11.3066 11.7086 -63.1727 -4.65518 9.76728 1.70252e-005 3.69328e-008 -69.7514 -32.8011 -40.3864 -51.3803 0.463909 -16.5488 9.09374 65.2473 -5.96136 32.4032 -0.000228882 3.18055e-015 88.0017 170.848 -12.7402 -151.943 -22.7394 -7.13284 -37.8565 -0.00544905 26.4039 0.0415929 26.2999 -12.3277 3.96535 34.0184 -42.9754 23.1453 -0.000364006 42.939 -0.0932732 -19.9167 -5.93995 -10.9991 
2.8684 96.9253 30.4039 5.8582 11.4921 -41.7817 -0.0427305 10.1718 11.9892 -63.0976 -4.71627 10.5179 1.70252e-005 3.67403e-008 -69.8615 -32.9167 -40.4387 -51.5948 0.518952 -15.8584 8.68301 64.9223 -5.38732 32.3081 -0.000228882 0 88.4812 170.908 -12.5759 -151.535 -22.6515 -5.81819 -37.6953 -0.00481699 25.6188 0.0413157 26.3069 -12.1827 4.03278 33.0663 -41.7443 22.1883 0.000225013 42.3512 -0.0978894 -20.1476 -6.01276 -10.8909 
2.34556 97.0898 30.5401 5.56429 10.5962 -41.687 0.240865 9.05446 12.1043 -62.992 -4.88975 11.3891 1.70253e-005 3.64595e-008 -70.022 -33.3233 -40.48 -51.9213 0.732747 -15.0843 8.3443 64.6577 -4.74607 32.3148 -0.000228882 -3.18055e-015 88.9157 171.376 -12.5538 -151.028 -22.5303 -4.27667 -37.5316 -0.00403766 24.6364 0.0409847 26.3045 -11.9571 4.10026 32.0295 -40.341 21.1118 0.00138148 41.692 -0.102737 -20.3856 -6.09735 -10.749 
1.80618 97.268 30.6845 5.21526 9.59435 -41.6095 0.557455 8.0193 12.1939 -62.907 -5.11083 12.2886 1.70255e-005 3.6083e-008 -70.2369 -33.9664 -40.5753 -52.3348 0.974979 -14.2237 8.00701 64.4195 -4.1767 32.3373 -0.000228882 6.36111e-015 89.4405 171.784 -12.4252 -150.561 -22.385 -2.54107 -37.3527 -0.00351836 23.468 0.0415971 26.2945 -11.6499 4.16862 30.9718 -38.7549 20.0315 0.0026156 40.9578 -0.107729 -20.6242 -6.1717 -10.6187 
1.25838 97.4548 30.8275 4.83156 8.51146 -41.5572 0.806929 7.13312 12.2095 -62.8079 -5.37074 13.1443 1.70256e-005 3.57121e-008 -70.4484 -34.1919 -40.5496 -52.5705 1.24081 -13.3536 7.78231 64.2489 -3.64387 32.3639 -0.000228882 6.38261e-015 90.2016 171.686 -12.2957 -150.286 -22.2326 -0.672592 -37.173 -0.00288538 22.1665 0.0422278 26.28 -11.2772 4.24336 29.9242 -37.0152 18.98 0.00375716 40.1423 -0.112664 -20.8671 -6.22614 -10.4932 
0.763971 97.6427 30.9965 4.48482 7.40679 -41.5349 1.01028 6.28022 12.2237 -62.6882 -5.4819 13.9151 1.70257e-005 3.54076e-008 -70.6218 -35.0982 -40.8648 -52.9201 1.33997 -12.3121 7.41893 64.1001 -3.19472 32.3668 -0.000228882 1.32317e-016 91.0805 171.576 -12.25 -149.878 -22.1307 1.19656 -37.0088 -0.00220075 20.8113 0.0429166 26.2638 -10.8616 4.32501 28.8801 -35.2295 17.9773 0.00456938 39.2578 -0.11718 -21.1016 -6.26626 -10.3424 
0.319697 97.8259 31.164 4.23562 6.36385 -41.5429 1.1764 5.35433 12.2574 -62.5859 -5.35095 14.582 1.70258e-005 3.51936e-008 -70.7435 -35.9092 -41.1151 -53.1631 1.40889 -11.1658 7.01746 63.9693 -2.86482 32.2896 -0.000228882 2.42883e-016 91.9837 171.167 -11.7679 -150.149 -22.1014 2.92452 -36.8902 -0.00151423 19.4808 0.0436635 26.2469 -10.4292 4.40341 27.8613 -33.5255 17.0498 0.00484312 38.3155 -0.120927 -21.3167 -6.285 -10.1348 
-0.0898559 97.9984 31.3084 4.03379 5.39031 -41.5792 1.37551 4.41592 12.2971 -62.5538 -4.98323 15.1854 1.70258e-005 3.50376e-008 -70.8322 -36.1659 -41.2687 -53.1638 1.47855 -9.99593 6.79645 63.8151 -2.6211 32.1469 -0.000228882 2.99188e-015 92.9617 170.953 -11.4635 -150.193 -22.1041 4.51205 -36.7856 -0.000851599 18.2183 0.0444563 26.2337 -10.0108 4.47492 26.9124 -31.897 16.1932 0.00471924 37.34 -0.124055 -21.5203 -6.27921 -9.87896 
-0.463886 98.1529 31.4227 3.82965 4.49992 -41.6499 1.6417 3.56494 12.3099 -62.6251 -4.49021 15.7784 1.70259e-005 3.49026e-008 -70.909 -36.4114 -41.4552 -53.3588 1.40735 -8.75602 6.48324 63.598 -2.479 31.9711 -0.000228882 -2.38386e-015 94.2114 171.167 -11.7905 -149.488 -22.1035 5.95495 -36.6527 -0.000250703 17.0772 0.045283 26.2397 -9.63611 4.54012 26.0925 -30.3321 15.4259 0.00454218 36.3707 -0.127008 -21.7181 -6.26414 -9.6019 
-0.797861 98.2913 31.5077 3.6548 3.68933 -41.7421 1.91505 2.83029 12.307 -62.7656 -4.03258 16.2934 1.7026e-005 3.46522e-008 -71.0512 -36.9681 -41.8571 -53.4982 1.1658 -7.77032 6.16325 63.3183 -2.40448 31.8385 -0.000228882 3.11545e-015 95.5074 171.28 -12.0794 -148.589 -22.1456 7.19341 -36.4675 0.000216945 16.1457 0.0461385 26.2214 -9.36096 4.57046 25.3587 -28.864 14.7378 0.00375318 35.3994 -0.128848 -21.9094 -6.2259 -9.30233 
-1.09708 98.4149 31.5556 3.54691 2.9773 -41.8653 2.1266 2.17156 12.2545 -62.958 -3.81303 16.7715 1.70261e-005 3.43268e-008 -71.2358 -37.4203 -42.0686 -53.4586 0.816905 -6.84215 5.97306 63.0296 -2.32201 31.7225 -0.000228882 3.80379e-015 96.7294 171.264 -12.239 -147.873 -22.2219 8.18857 -36.1553 0.000567767 15.401 0.0469903 26.1941 -9.21413 4.49231 24.7132 -27.5332 14.1634 0.00221061 34.4327 -0.129237 -22.1017 -6.15614 -8.9919 
-1.34154 98.5255 31.5625 3.50933 2.32896 -42.0105 2.27544 1.62137 12.1969 -63.2529 -3.87728 17.1642 1.70261e-005 3.41279e-008 -71.3485 -37.799 -41.9238 -53.3586 0.407489 -5.92533 5.83723 62.7619 -2.31631 31.6469 -0.000228882 9.59937e-016 97.8631 171.254 -12.4659 -147.403 -22.3864 8.96726 -35.8567 0.000787903 14.8556 0.047816 26.1687 -9.12782 4.44493 24.0948 -26.3376 13.6399 0.000616137 33.4831 -0.129307 -22.2841 -6.06582 -8.63485 
-1.5609 98.6037 31.5109 3.52623 1.82778 -42.1904 2.43383 1.10282 12.1483 -63.6206 -4.10241 17.5111 1.70262e-005 3.40285e-008 -71.4048 -38.2945 -41.6876 -53.62 -0.00112152 -5.26146 5.81552 62.5223 -2.38823 31.5168 -0.000228882 -5.07094e-015 98.9873 171.181 -12.6314 -147.192 -22.5359 9.4768 -35.593 0.000886635 14.4939 0.0485882 26.1315 -9.12873 4.43655 23.6671 -25.3979 13.3227 -0.00060641 32.7004 -0.129302 -22.4657 -5.97492 -8.34786 
-1.77307 98.661 31.4109 3.55373 1.46542 -42.3747 2.55994 0.666991 12.0756 -63.8723 -4.21907 17.814 1.70263e-005 3.37457e-008 -71.565 -38.6733 -41.7122 -54.0499 -0.283188 -4.75539 5.8984 62.3905 -2.59676 31.2597 -0.000228882 1.25078e-015 100.268 171.203 -12.5803 -146.964 -22.6197 9.79911 -35.3671 0.000902709 14.2687 0.0492737 26.086 -9.19051 4.45549 23.4186 -24.6519 13.1482 -0.00157736 32.0368 -0.129161 -22.6421 -5.86815 -8.12327 
-1.9612 98.7022 31.2736 3.5462 1.25624 -42.5496 2.8233 0.331115 11.9226 -64.1075 -4.27352 18.0361 1.70263e-005 3.36222e-008 -71.6349 -39.0072 -41.6643 -54.6557 -0.62741 -4.0129 6.10379 62.408 -2.92191 31.1791 -0.000228882 6.47028e-015 101.497 171.489 -12.5207 -146.949 -22.6092 9.95251 -35.1731 0.000823881 14.1927 0.0498534 26.0321 -9.3085 4.49965 23.3478 -24.0754 13.0486 -0.00162847 31.464 -0.128856 -22.799 -5.7486 -7.92378 
-2.10903 98.7276 31.1152 3.54455 1.16342 -42.7329 3.11472 0.0883677 11.7464 -64.2987 -4.31051 18.2389 1.70264e-005 3.34845e-008 -71.7127 -39.2956 -41.4463 -55.1638 -0.890934 -3.22124 6.32808 62.4112 -3.16772 31.0261 -0.000228882 1.52562e-015 102.558 171.508 -12.8859 -146.653 -22.5824 9.92156 -34.9946 0.000583744 14.2858 0.0505083 25.9807 -9.47882 4.56948 23.3893 -23.6704 13.0378 -0.00188737 31.0071 -0.128435 -22.9215 -5.63034 -7.75523 
-2.202 98.735 30.9591 3.55112 1.15521 -42.8402 3.36323 -0.0169454 11.4491 -64.4427 -4.37735 18.3413 1.70264e-005 3.33428e-008 -71.7929 -39.4134 -41.1211 -55.3885 -1.03647 -2.71774 6.54791 62.3965 -3.47576 30.8011 -0.000228882 -1.65472e-015 103.64 171.21 -12.9952 -146.841 -22.5649 9.77051 -34.9009 0.00014972 14.5395 0.0513746 25.9318 -9.68386 4.6586 23.4725 -23.4765 13.0289 -0.00208777 30.7052 -0.127964 -23.0085 -5.5262 -7.6254 
-2.23377 98.7277 30.801 3.59398 1.27822 -42.9297 3.6117 -0.0583746 11.1021 -64.5259 -4.34623 18.4203 1.70265e-005 3.31469e-008 -71.9035 -39.3738 -40.7767 -55.5385 -1.17452 -2.34302 6.78818 62.3902 -3.89756 30.4779 -0.000228882 1.78393e-015 104.729 171.175 -13.1371 -147.363 -22.5532 9.40593 -34.8618 -0.000476669 14.9634 0.0523769 25.8723 -9.91413 4.75815 23.6455 -23.5307 13.1139 -0.00212529 30.5758 -0.127476 -23.0565 -5.43182 -7.54706 
-2.19844 98.7094 30.6607 3.68924 1.49645 -43.0336 3.83281 -0.0200629 10.7746 -64.5646 -4.1669 18.3524 1.70265e-005 3.30511e-008 -71.9576 -39.3353 -40.7215 -55.7427 -1.33288 -2.07239 7.04344 62.3747 -4.36856 30.0778 -0.000228882 1.90257e-015 105.733 171.194 -13.126 -147.757 -22.5813 8.85861 -34.8488 -0.00121998 15.4896 0.0534221 25.8137 -10.1336 4.85219 23.868 -23.7968 13.316 -0.00193809 30.6205 -0.126986 -23.0521 -5.36551 -7.52288 
